<svg width="1440" height="779" viewBox="0 0 1440 779" fill="none" xmlns="http://www.w3.org/2000/svg">
<path d="M0 47.0897L56.967 72.5438C56.2637 69.9726 56.967 64.9847 65.4066 65.6017C69.2361 65.8817 73.0656 66.5683 76.6932 67.2187C83.059 68.3599 88.8032 69.3898 92.8352 67.9158C96 66.7587 97.0549 66.7588 97.978 66.7588C98.9011 66.7588 99.6923 66.7588 102.33 65.6017C105.035 64.4149 105.52 63.2281 105.92 62.2494C106.301 61.3199 106.604 60.5781 108.659 60.2024C110.407 59.8829 111.25 60.3575 112.238 60.9134C113.634 61.6997 115.32 62.6488 120.264 61.7451C124.648 60.9437 126.47 60.1423 127.8 59.5571C129.031 59.0159 129.84 58.6597 131.868 58.6597C136.088 58.6597 144.527 54.8031 145.582 52.4891C145.676 52.2841 145.761 52.0913 145.841 51.9106C146.662 50.0505 146.918 49.472 149.802 50.1751C151.327 50.5467 153.342 52.8883 155.493 55.3877C157.805 58.0754 160.275 60.9457 162.462 61.7451C166.681 63.2877 173.011 64.8304 174.066 62.5164C174.403 61.7763 174.417 61.5096 174.521 61.4892C174.743 61.446 175.373 62.5164 180.396 62.5164C186.091 62.5164 187.394 61.14 188.66 59.8026C189.035 59.4059 189.407 59.0126 189.89 58.6597C191.035 57.8227 192.801 58.3481 194.177 58.7575C195.337 59.1027 196.22 59.3654 196.22 58.6597C196.22 58.4322 196.197 58.2046 196.175 57.9844C196.046 56.7123 195.943 55.6882 200.44 56.3457C202.011 56.5756 202.834 56.8054 203.437 56.974C204.859 57.3713 205.064 57.4287 210.989 56.3457C214.79 55.651 216.879 54.3304 218.509 53.3001C220.498 52.0425 221.804 51.2172 224.703 52.4891C228.287 54.0613 231.871 55.9897 236.117 58.2741C238.12 59.3518 240.27 60.5088 242.637 61.7451C247.224 64.1405 252.218 65.9408 258.124 68.0701C261.727 69.369 265.669 70.7903 270.066 72.5438C281.67 77.1718 281.67 77.1718 282.725 78.7144C282.989 79.1001 283.121 79.534 283.253 79.9679C283.648 81.2695 284.044 82.5711 288 82.5711C290.416 82.5711 291.504 83.7039 292.684 84.9318C294.079 86.3846 295.602 87.9705 299.604 87.9705C303.717 87.9705 304.885 87.7312 306.57 87.386C307.911 87.1113 309.579 86.7696 313.319 86.4278C317.934 86.0059 318.448 86.0455 320.037 86.168C321.353 86.2694 323.407 86.4278 329.143 86.4278C341.802 86.4278 350.242 85.6564 352.352 84.1138C354.462 82.5711 355.516 81.7998 358.681 84.1138C361.846 86.4278 366.066 89.5133 371.341 92.5985C373.385 93.7944 374.637 94.7586 375.588 95.491C377.091 96.648 377.842 97.2265 379.78 97.2265C381.787 97.2265 383.369 96.6064 384.527 96.1525C385.196 95.8905 385.724 95.6838 386.11 95.6838C386.462 95.6838 387.048 96.0266 387.829 96.4837C389.392 97.3979 391.736 98.7691 394.549 98.7691C396.161 98.7691 397.157 98.9942 398.008 99.1864C399.385 99.4975 400.381 99.7226 402.989 98.7691C406.667 97.4246 408.742 99.0097 411.31 100.971C411.688 101.26 412.077 101.557 412.484 101.854C415.648 104.168 418.813 105.711 425.143 106.482C428.003 106.831 428.924 106.865 429.756 107.081C430.766 107.344 431.644 107.876 435.692 109.568C443.077 112.653 456.791 114.967 461.011 114.967C462.623 114.967 463.927 114.742 465.041 114.55C466.843 114.239 468.147 114.014 469.451 114.967C473.463 114.967 472.812 115.897 472.335 116.578C472.06 116.971 471.843 117.281 472.615 117.281C473.283 117.281 473.952 117.436 474.653 117.598C476.167 117.949 477.837 118.335 480 117.281C482.532 116.047 483.868 115.224 484.22 114.967C486.33 114.196 491.182 113.116 493.714 114.967C495.732 116.442 496.892 116.037 498.288 115.549C499.081 115.271 499.952 114.967 501.099 114.967C502.154 114.967 503.092 115.139 504.029 115.31C505.905 115.653 507.78 115.996 510.593 114.967C512.531 114.259 512.912 113.876 513.369 113.818C513.909 113.75 514.555 114.133 517.978 114.967C521.628 115.857 524.226 115.977 526.175 116.067C527.607 116.133 528.689 116.183 529.582 116.51C531.27 117.127 532.396 119.852 532.747 121.138C532.396 119.852 532.747 117.435 536.967 118.053C539.655 118.446 539.877 118.037 540.147 117.543C540.407 117.066 540.71 116.51 543.297 116.51C546.528 116.51 548.571 117.668 550.155 118.565C551.156 119.132 551.974 119.595 552.791 119.595C559.121 121.138 560.176 121.138 562.286 121.138C563.021 121.138 563.884 121.512 565.008 122C567.112 122.913 570.133 124.223 574.945 124.223C582.33 124.223 584.44 122.681 585.494 121.909C586.338 121.292 588.659 122.681 589.714 123.452C590.418 122.423 592.457 120.675 594.989 121.909C596.078 122.44 596.418 123.062 596.738 123.65C597.35 124.77 597.893 125.766 603.429 125.766C607.564 125.766 608.913 126.507 609.959 127.081C611.046 127.678 611.805 128.095 615.033 127.309C618.458 126.474 619.721 125.187 620.827 124.06C621.766 123.104 622.591 122.263 624.527 121.909C627.151 121.43 628.144 120.652 629.28 119.761C629.971 119.219 630.715 118.636 631.912 118.053C633.407 117.324 633.96 117.112 634.461 116.846C635.022 116.55 635.516 116.188 637.187 114.967C640.352 112.653 642.462 113.424 643.516 114.967C643.986 115.654 644.456 114.811 645.019 113.801C645.72 112.543 646.566 111.026 647.736 111.882C648.674 112.567 649.612 112.034 650.549 111.501C651.722 110.834 652.894 110.168 654.066 111.882C655.743 114.334 656.753 112.401 657.627 110.73C657.853 110.299 658.069 109.884 658.286 109.568C659.13 108.334 662.154 109.054 663.56 109.568C663.56 109.825 663.982 110.185 665.67 109.568C666.544 109.248 666.694 108.929 666.87 108.555C667.118 108.025 667.418 107.386 669.89 106.482C670.552 106.24 671.137 106.036 671.663 105.852C674.493 104.864 675.661 104.456 678.33 101.854C681.495 98.7691 684.659 96.4551 686.769 97.2265C687.685 97.5614 687.806 97.1691 687.995 96.5548C688.24 95.7545 688.602 94.5775 690.989 94.1411C692.693 93.8297 693.708 94.2726 694.592 94.6578C695.897 95.2266 696.912 95.6695 699.429 93.3698C703.648 89.5131 705.758 88.7418 708.923 89.5131C709.811 89.7296 710.367 90.0676 710.87 90.3736C712.16 91.158 713.105 91.7326 718.418 89.5131C721.191 88.3542 722.626 87.9571 723.671 87.6677C725.408 87.1867 726.07 87.0034 730.022 84.1138C732.521 82.2866 736.829 80.0988 741.192 77.8826C747.882 74.4852 754.702 71.0211 755.341 68.6871C755.893 66.6691 756.445 66.9741 757.601 67.6131C758.655 68.1953 760.211 69.0548 762.725 68.6871C765.363 68.3014 765.89 67.5301 766.286 66.9516C766.681 66.3731 766.945 65.9874 769.055 66.3731C770.379 66.6152 771.288 66.7053 772.107 66.7865C773.898 66.9642 775.261 67.0994 779.604 68.6871C782.848 69.8729 784.153 69.4382 785.647 68.9401C787.069 68.4663 788.663 67.935 792.264 68.6871C797.472 69.7751 800.581 69.3284 803.072 68.9706C804.113 68.8211 805.045 68.6871 805.978 68.6871H811.253C811.956 68.1729 813.996 67.6072 816.527 69.4584C819.692 71.7721 819.692 71.7724 823.91 75.6273L823.912 75.6291C826.081 77.6115 827.135 79.7976 827.934 81.4543C828.689 83.0207 829.216 84.1138 830.242 84.1138C830.945 84.1138 831.531 84.2852 832.117 84.4566C833.289 84.7994 834.462 85.1422 836.571 84.1138C837.498 83.6619 838.063 83.2101 838.531 82.8358C839.661 81.9321 840.226 81.4803 843.956 82.5711C847.216 83.5245 847.655 84.1833 848.262 85.0938C848.638 85.6565 849.077 86.3153 850.286 87.1991C853.451 89.5131 854.505 89.5131 857.67 89.5131C860 89.5131 860.615 91.1845 861.618 93.9123C861.978 94.8906 862.388 96.0048 862.945 97.2265C864.735 101.153 865.006 101.193 870.845 102.057C871.889 102.211 873.11 102.392 874.549 102.626C882.61 103.936 884.588 104.689 887.584 105.831C888.116 106.034 888.681 106.25 889.319 106.482C891.572 107.306 891.72 107.25 892.331 107.019C892.865 106.818 893.753 106.482 896.703 106.482C900.654 106.482 901.317 107.684 902.539 109.9C903.276 111.235 904.215 112.938 906.198 114.967C911.473 120.367 914.637 122.681 917.802 120.367C919.102 119.417 920.045 118.076 920.925 116.827C922.189 115.033 923.321 113.424 925.187 113.424C926.628 113.424 926.757 114.064 926.868 114.615C927.001 115.275 927.108 115.807 929.407 114.967C930.855 114.438 931.682 114.363 932.314 114.305C933.524 114.195 934.02 114.15 936.791 111.11C939.035 108.65 939.191 107.934 939.321 107.339C939.435 106.815 939.529 106.385 941.011 104.94C942.756 103.238 943.218 103.179 943.989 103.08C944.616 102.999 945.448 102.892 947.341 101.854C948.266 101.347 949.039 100.914 949.737 100.522C952.226 99.1281 953.772 98.2618 957.89 96.4551C960.55 95.2881 962.405 93.1403 963.997 91.2977C965.561 89.4866 966.871 87.9705 968.44 87.9705C969.908 87.9705 970.695 87.3059 971.539 86.5936C972.513 85.7712 973.563 84.8851 975.824 84.8851C980.044 84.8851 984.264 82.5711 986.374 80.2571C986.551 80.0629 986.72 79.8687 986.889 79.6759C988.727 77.571 990.424 75.6291 1000.09 75.6291C1006.27 75.6291 1009.2 74.5681 1012.47 73.3793C1014.78 72.541 1017.26 71.6391 1021.19 71.0011C1027.81 69.9255 1032.89 68.1 1037.15 66.5703C1038.99 65.906 1040.69 65.2975 1042.29 64.8304C1044.41 64.2085 1045.68 63.4613 1046.99 62.6897C1048.93 61.5474 1050.96 60.3519 1056 59.4311C1059.73 58.7491 1062.84 58.5193 1065.25 58.342C1068.28 58.1182 1070.18 57.9777 1070.77 57.1171C1071.12 56.6028 1071.12 55.9172 1071.12 55.2315C1071.12 53.8603 1071.12 52.4891 1073.93 52.4891C1076.35 52.4891 1078.07 53.4965 1079.3 54.2161C1080.22 54.7559 1080.87 55.1336 1081.32 54.8031C1081.6 54.5953 1081.81 53.8837 1082.09 52.9397C1082.83 50.3797 1084.08 46.1106 1088.7 45.547C1092.27 45.1127 1093.82 44.923 1094.88 44.2893C1095.7 43.7975 1096.22 43.0385 1097.14 41.6904C1098.03 40.3863 1098.17 39.2201 1098.27 38.3663C1098.41 37.2001 1098.48 36.617 1100.31 37.0624C1101.89 37.448 1101.89 37.448 1102.29 37.1588C1102.68 36.8695 1103.47 36.291 1106.64 35.5197C1111.7 34.2856 1110.86 37.0624 1109.8 38.605C1111.56 38.605 1114.02 37.3709 1109.8 32.4344C1109.45 30.8917 1110.22 28.2691 1116.13 30.1203C1122.35 32.0687 1123.33 31.2829 1126.01 29.1443C1126.51 28.7429 1127.07 28.2939 1127.74 27.8063L1134.07 23.1783C1135.36 22.2328 1135.42 21.4161 1135.47 20.7282C1135.54 19.7325 1135.6 19.0065 1139.34 18.5503C1141.67 18.2668 1143.14 18.1917 1144.28 18.1335C1146.24 18.0334 1147.22 17.9833 1149.89 17.0077C1151.39 16.4575 1152.36 15.7112 1153.18 15.0836C1154.65 13.9511 1155.61 13.2048 1158.33 14.6937C1160.13 15.6801 1160.39 16.5264 1160.6 17.1727C1160.87 18.0426 1161.03 18.5503 1164.66 18.5503C1170.99 18.5503 1173.1 18.5503 1176.26 20.093C1177.8 20.8402 1178.83 20.5017 1179.98 20.1292C1181.19 19.7326 1182.53 19.2975 1184.7 20.093C1186.32 20.6823 1187 21.2715 1187.59 21.7748C1188.54 22.5891 1189.23 23.1783 1193.14 23.1783C1194.98 23.1783 1196.11 23.309 1197.38 23.4562C1200.48 23.8149 1204.42 24.2721 1221.63 23.1783C1230.78 22.5962 1238.44 22.4534 1244.76 22.3355C1255.19 22.1409 1261.99 22.014 1265.93 20.093C1268.38 18.901 1270.35 17.5939 1272.1 16.4385C1274.87 14.6033 1277.06 13.151 1279.65 13.151C1281.87 13.151 1284.67 14.6435 1287.75 16.2832C1290.52 17.7624 1293.53 19.3614 1296.53 20.093C1301.59 21.3271 1302.86 20.6072 1302.86 20.093H1308.13C1307.43 18.8074 1306.44 15.9278 1308.13 14.6937C1309.08 14.0002 1310.03 14.086 1311.07 14.1805C1312.35 14.2962 1313.77 14.4249 1315.52 13.151C1316.49 12.4375 1317.37 11.944 1318.17 11.4896C1319.98 10.4703 1321.44 9.64782 1322.9 6.98032C1323.64 5.62572 1323.86 4.65175 1324.02 3.95814C1324.31 2.67696 1324.38 2.35231 1327.12 2.35231C1331.34 2.35231 1332.4 2.35231 1336.62 4.66631C1338.35 5.61696 1339.01 6.6978 1339.56 7.58792C1340.35 8.86447 1340.89 9.74877 1344 9.29432C1346.86 8.87658 1347.55 9.3638 1348.08 9.28565C1348.54 9.2195 1348.88 8.74828 1350.33 6.98032C1351.46 5.59958 1351.92 4.51544 1352.28 3.6571C1352.93 2.11792 1353.27 1.30483 1356.66 0.809637C1357.37 0.706072 1358.02 0.588602 1358.64 0.475897C1362.67 -0.250809 1365.6 -0.779413 1375.65 3.89498C1384.93 8.21445 1422.42 20.6072 1440 26.2637V731.91L1383.03 706.456C1383.74 709.027 1383.03 714.015 1374.59 713.398C1370.76 713.118 1366.93 712.432 1363.31 711.781C1356.94 710.64 1351.2 709.61 1347.16 711.084C1344 712.241 1342.95 712.241 1342.02 712.241C1341.1 712.241 1340.31 712.241 1337.67 713.398C1334.96 714.585 1334.48 715.772 1334.08 716.751C1333.7 717.68 1333.4 718.422 1331.34 718.798C1329.59 719.117 1328.75 718.643 1327.76 718.087C1326.37 717.3 1324.68 716.351 1319.74 717.255C1315.35 718.056 1313.53 718.858 1312.2 719.443C1310.97 719.984 1310.16 720.34 1308.13 720.34C1303.91 720.34 1295.47 724.197 1294.42 726.511C1294.32 726.716 1294.24 726.909 1294.16 727.089C1293.34 728.949 1293.08 729.528 1290.2 728.825C1288.67 728.453 1286.66 726.112 1284.51 723.612C1282.19 720.925 1279.72 718.054 1277.54 717.255C1273.32 715.712 1266.99 714.17 1265.93 716.484C1265.6 717.224 1265.58 717.49 1265.48 717.511C1265.26 717.554 1264.63 716.484 1259.6 716.484C1253.91 716.484 1252.61 717.86 1251.34 719.197C1250.96 719.594 1250.59 719.987 1250.11 720.34C1248.97 721.177 1247.2 720.652 1245.82 720.242C1244.66 719.897 1243.78 719.635 1243.78 720.34C1243.78 720.568 1243.8 720.795 1243.83 721.016C1243.95 722.288 1244.06 723.312 1239.56 722.654C1237.99 722.424 1237.17 722.195 1236.56 722.026C1235.14 721.629 1234.94 721.571 1229.01 722.654C1225.21 723.349 1223.12 724.67 1221.49 725.7C1219.5 726.957 1218.2 727.783 1215.3 726.511C1211.71 724.939 1208.13 723.01 1203.88 720.726C1201.88 719.648 1199.73 718.491 1197.36 717.255C1192.78 714.86 1187.78 713.059 1181.88 710.93C1178.27 709.631 1174.33 708.21 1169.93 706.456L1169.93 706.456C1158.33 701.828 1158.33 701.828 1157.27 700.286C1157.01 699.9 1156.88 699.466 1156.75 699.032C1156.35 697.73 1155.96 696.429 1152 696.429C1149.58 696.429 1148.5 695.296 1147.32 694.068C1145.92 692.615 1144.4 691.03 1140.4 691.03C1136.28 691.03 1135.12 691.269 1133.43 691.614C1132.09 691.889 1130.42 692.23 1126.68 692.572C1122.07 692.994 1121.55 692.954 1119.96 692.832C1118.65 692.731 1116.59 692.572 1110.86 692.572C1098.2 692.572 1089.76 693.344 1087.65 694.886C1085.54 696.429 1084.48 697.2 1081.32 694.886C1078.15 692.572 1073.93 689.487 1068.66 686.402C1066.61 685.206 1065.36 684.241 1064.41 683.509C1062.91 682.352 1062.16 681.774 1060.22 681.774C1058.21 681.774 1056.63 682.394 1055.47 682.847C1054.8 683.109 1054.28 683.316 1053.89 683.316C1053.54 683.316 1052.95 682.973 1052.17 682.516C1050.61 681.602 1048.26 680.231 1045.45 680.231C1043.84 680.231 1042.84 680.006 1041.99 679.814C1040.61 679.503 1039.62 679.277 1037.01 680.231C1033.33 681.575 1031.26 679.99 1028.69 678.029C1028.31 677.74 1027.92 677.443 1027.52 677.146C1024.35 674.832 1021.19 673.289 1014.86 672.518C1012 672.169 1011.08 672.135 1010.24 671.919C1009.23 671.656 1008.36 671.124 1004.31 669.432C996.923 666.347 983.209 664.033 978.989 664.033C977.377 664.033 976.073 664.258 974.959 664.45C973.157 664.761 971.853 664.986 970.549 664.033C966.537 664.033 967.188 663.103 967.665 662.422C967.94 662.029 968.157 661.719 967.385 661.719C966.717 661.719 966.049 661.564 965.347 661.402C963.833 661.051 962.163 660.665 960 661.719C957.468 662.953 956.132 663.776 955.78 664.033C953.67 664.804 948.818 665.884 946.286 664.033C944.268 662.558 943.108 662.963 941.712 663.451C940.919 663.729 940.048 664.033 938.901 664.033C937.846 664.033 936.908 663.861 935.971 663.69C934.095 663.347 932.22 663.004 929.407 664.033C927.469 664.741 927.088 665.124 926.631 665.182C926.091 665.25 925.445 664.867 922.022 664.033C918.372 663.143 915.774 663.023 913.825 662.933C912.393 662.867 911.311 662.817 910.418 662.49C908.73 661.873 907.604 659.148 907.253 657.862C907.604 659.148 907.253 661.565 903.033 660.947C900.345 660.554 900.123 660.963 899.853 661.457C899.593 661.934 899.29 662.49 896.703 662.49C893.472 662.49 891.429 661.332 889.845 660.435C888.844 659.868 888.026 659.405 887.209 659.405C880.879 657.862 879.824 657.862 877.714 657.862C876.979 657.862 876.116 657.488 874.992 657C872.888 656.087 869.867 654.777 865.055 654.777C857.67 654.777 855.56 656.319 854.506 657.091C853.662 657.708 851.341 656.32 850.286 655.548C849.582 656.577 847.543 658.325 845.011 657.091C843.922 656.56 843.582 655.938 843.262 655.35C842.65 654.23 842.107 653.234 836.571 653.234C832.436 653.234 831.087 652.493 830.041 651.919C828.954 651.322 828.195 650.905 824.967 651.691C821.542 652.526 820.279 653.813 819.173 654.94C818.234 655.896 817.409 656.737 815.473 657.091C812.849 657.57 811.856 658.348 810.72 659.239C810.029 659.781 809.285 660.364 808.088 660.947C806.593 661.676 806.04 661.888 805.539 662.154C804.978 662.45 804.483 662.812 802.813 664.033C799.648 666.347 797.538 665.576 796.484 664.033C796.014 663.346 795.544 664.189 794.981 665.199C794.28 666.457 793.434 667.974 792.264 667.118C791.326 666.433 790.388 666.966 789.451 667.499C788.278 668.166 787.106 668.832 785.934 667.118C784.257 664.666 783.247 666.599 782.373 668.27C782.147 668.701 781.931 669.116 781.714 669.432C780.87 670.666 777.846 669.946 776.44 669.432C776.44 669.175 776.018 668.815 774.33 669.432C773.456 669.752 773.306 670.071 773.13 670.446C772.882 670.975 772.582 671.614 770.11 672.518C769.448 672.76 768.863 672.964 768.337 673.148C765.507 674.136 764.339 674.544 761.67 677.146C758.505 680.231 755.341 682.545 753.231 681.774C752.315 681.439 752.194 681.831 752.005 682.445C751.76 683.245 751.398 684.422 749.011 684.859C747.307 685.17 746.292 684.727 745.408 684.342C744.103 683.773 743.088 683.33 740.571 685.63C736.352 689.487 734.242 690.258 731.077 689.487C730.189 689.27 729.633 688.932 729.13 688.626C727.84 687.842 726.895 687.267 721.582 689.487C718.809 690.646 717.374 691.043 716.329 691.332C714.592 691.813 713.93 691.997 709.978 694.886C707.479 696.713 703.171 698.901 698.808 701.117C692.118 704.515 685.298 707.979 684.659 710.313C684.107 712.331 683.555 712.026 682.399 711.387C681.345 710.805 679.789 709.945 677.275 710.313C674.637 710.699 674.11 711.47 673.714 712.048C673.319 712.627 673.055 713.013 670.945 712.627C669.621 712.385 668.712 712.295 667.893 712.213C666.102 712.036 664.739 711.901 660.396 710.313C657.152 709.127 655.847 709.562 654.353 710.06C652.931 710.534 651.337 711.065 647.736 710.313C642.528 709.225 639.419 709.672 636.928 710.029C635.887 710.179 634.955 710.313 634.022 710.313H628.747C628.044 710.827 626.004 711.393 623.473 709.542C620.308 707.228 620.308 707.228 616.09 703.373L616.089 703.372L616.088 703.371C613.919 701.389 612.865 699.202 612.066 697.546C611.311 695.979 610.784 694.886 609.758 694.886C609.055 694.886 608.469 694.715 607.883 694.543C606.711 694.201 605.538 693.858 603.429 694.886C602.502 695.338 601.937 695.79 601.469 696.164C600.339 697.068 599.774 697.52 596.044 696.429C592.784 695.475 592.345 694.817 591.738 693.906C591.362 693.344 590.923 692.685 589.714 691.801C586.549 689.487 585.495 689.487 582.33 689.487C580 689.487 579.385 687.815 578.382 685.088C578.022 684.109 577.612 682.995 577.055 681.774C575.265 677.847 574.994 677.807 569.155 676.943C568.111 676.789 566.89 676.608 565.451 676.374C557.39 675.064 555.412 674.311 552.416 673.169C551.884 672.966 551.319 672.75 550.681 672.518C548.428 671.694 548.28 671.75 547.669 671.981C547.135 672.182 546.247 672.518 543.297 672.518C539.346 672.518 538.683 671.316 537.461 669.1C536.724 667.765 535.785 666.062 533.802 664.033C528.527 658.633 525.363 656.319 522.198 658.633C520.898 659.583 519.955 660.923 519.075 662.173C517.811 663.967 516.679 665.576 514.813 665.576C513.372 665.576 513.243 664.936 513.132 664.385C512.999 663.725 512.892 663.192 510.593 664.033C509.145 664.562 508.318 664.637 507.686 664.695C506.476 664.805 505.98 664.85 503.209 667.89C500.965 670.35 500.809 671.066 500.679 671.661C500.565 672.185 500.471 672.615 498.989 674.06C497.244 675.762 496.782 675.821 496.011 675.92C495.384 676.001 494.552 676.108 492.659 677.146C491.734 677.653 490.961 678.086 490.262 678.478C487.774 679.872 486.228 680.738 482.11 682.545C479.45 683.712 477.595 685.86 476.003 687.702C474.439 689.513 473.129 691.03 471.56 691.03C470.092 691.03 469.305 691.694 468.461 692.406C467.487 693.229 466.437 694.115 464.176 694.115C459.956 694.115 455.736 696.429 453.626 698.743C453.449 698.937 453.28 699.131 453.111 699.324C451.273 701.429 449.576 703.371 439.912 703.371C433.726 703.371 430.804 704.432 427.531 705.621C425.223 706.459 422.74 707.361 418.813 707.999C412.193 709.074 407.112 710.9 402.854 712.43C401.005 713.094 399.311 713.702 397.714 714.17C395.588 714.791 394.319 715.539 393.008 716.31C391.068 717.453 389.037 718.648 384 719.569C380.269 720.251 377.157 720.481 374.754 720.658C371.721 720.882 369.819 721.022 369.231 721.883C368.879 722.397 368.879 723.083 368.879 723.769C368.879 725.14 368.879 726.511 366.066 726.511C363.655 726.511 361.932 725.503 360.702 724.784C359.779 724.244 359.134 723.866 358.681 724.197C358.397 724.405 358.19 725.116 357.914 726.06C357.167 728.62 355.921 732.889 351.297 733.453C347.733 733.887 346.176 734.077 345.118 734.711C344.298 735.202 343.779 735.962 342.857 737.31C341.965 738.614 341.827 739.78 341.726 740.634C341.589 741.8 341.52 742.383 339.692 741.938C338.11 741.552 338.11 741.552 337.714 741.841C337.319 742.13 336.527 742.709 333.363 743.48C328.299 744.714 329.143 741.938 330.198 740.395C328.44 740.395 325.978 741.629 330.198 746.566C330.549 748.108 329.776 750.731 323.868 748.88C317.65 746.931 316.668 747.717 313.994 749.856C313.492 750.257 312.931 750.706 312.264 751.194L305.934 755.822C304.641 756.767 304.581 757.584 304.53 758.272C304.456 759.268 304.403 759.994 300.659 760.45C298.333 760.733 296.862 760.808 295.721 760.866C293.76 760.967 292.779 761.017 290.11 761.992C288.605 762.543 287.637 763.289 286.823 763.916C285.354 765.049 284.385 765.795 281.67 764.306C279.872 763.32 279.606 762.474 279.404 761.827C279.131 760.957 278.972 760.45 275.341 760.45C269.011 760.45 266.901 760.45 263.736 758.907C262.203 758.16 261.166 758.498 260.023 758.871C258.807 759.267 257.473 759.702 255.297 758.907C253.685 758.318 252.997 757.729 252.409 757.225C251.457 756.411 250.769 755.822 246.857 755.822C245.015 755.822 243.888 755.691 242.618 755.544C239.522 755.185 235.577 754.728 218.374 755.822C209.217 756.404 201.563 756.547 195.241 756.665C184.811 756.859 178.007 756.986 174.066 758.907C171.621 760.099 169.648 761.406 167.904 762.561C165.133 764.397 162.941 765.849 160.352 765.849C158.133 765.849 155.331 764.357 152.253 762.717C149.476 761.238 146.474 759.639 143.473 758.907C138.409 757.673 137.143 758.393 137.143 758.907H131.868C132.571 760.193 133.556 763.072 131.868 764.306C130.92 765 129.971 764.914 128.927 764.819C127.648 764.704 126.226 764.575 124.484 765.849C123.508 766.562 122.632 767.056 121.826 767.51C120.018 768.53 118.558 769.352 117.099 772.02C116.358 773.374 116.137 774.348 115.98 775.042C115.69 776.323 115.617 776.648 112.879 776.648C108.659 776.648 107.604 776.648 103.385 774.334C101.651 773.383 100.986 772.302 100.438 771.412C99.652 770.136 99.1077 769.251 96 769.706C93.1433 770.123 92.4526 769.636 91.9169 769.714C91.4635 769.781 91.1212 770.252 89.6704 772.02C88.5373 773.4 88.0803 774.485 87.7185 775.343C87.0697 776.882 86.727 777.695 83.3407 778.19C82.6325 778.294 81.9813 778.411 81.3565 778.524C77.3282 779.251 74.398 779.779 64.3517 775.105C55.0681 770.786 17.5824 758.393 0 752.736V47.0897Z" fill="#202020"/>
</svg>
